<svg id="svg2" xmlns="http://www.w3.org/2000/svg" width="1534.39" height="333.13" viewBox="0 0 1534.39 333.13"><title>engadget</title><g id="g10"><g id="g12"><path id="path14" d="M0,243.49c0,16.15,13.13,29.28,30.29,29.28H151.42V242.48H30.29V212.2H149.4c16.15,0,32.3-13.13,32.3-29.28V124.37c0-16.15-15.14-32.3-32.3-32.3H30.29C14.13,92.07,0,108.22,0,124.37Zm151.42-61.58H30.29V121.35H151.42ZM556.21,91.06H436.09c-16.15,0-32.3,16.15-32.3,32.3V242.48c0,16.15,16.15,30.29,32.3,30.29H555.2V303H434.07v30.29H556.21c16.15,0,29.28-14.14,29.28-30.29V123.37C585.49,107.22,572.36,91.06,556.21,91.06Zm-1,151.42H434.07V121.35H555.2ZM323,91.06H233.19c-16.15,0-31.3,16.15-31.3,32.3v149.4h30.29V121.35H323c16.15,0,30.29,15.14,30.29,32.3V272.77h30.28V153.65C383.59,120.34,356.34,91.06,323,91.06ZM757.1,242.48H636V152.64c0-16.15,16.15-32.3,33.31-32.3H757.1V271.76h30.28V123.37c0-16.15-12.11-32.3-28.27-32.3H669.28c-33.31,0-63.6,29.27-63.6,62.58v89.84c0,16.15,17.16,29.28,33.31,29.28h52.49c27.26,0,55.52-11.1,65.61-30.29v30.29M1443.53.21h-30.28V272.77h30.28V121.35h90.85V91.06h-90.85m-424,152.43c0,16.15,9.08,29.28,25.24,29.28h116.09V303h-111v30.29h115.08c16.15,0,26.25-14.14,26.25-31.3V123.37c0-16.15-10.09-32.3-26.25-32.3H1044.8c-16.16,0-25.24,16.15-25.24,32.3Zm141.33-1h-111V121.35h111ZM959,91.06H841.89c-16.15,0-34.32,16.15-34.32,32.3V242.48c0,16.15,18.17,30.29,34.32,30.29H989.28V.21H959Zm0,151.42H837.85V121.35H959Zm252.37,1c0,16.15,17.16,29.28,33.31,29.28h118.11V242.48H1241.64V212.2H1364.8c16.15,0,28.25-13.13,28.25-29.28V124.37c0-16.15-12.11-32.3-28.25-32.3H1244.67c-16.15,0-33.31,16.15-33.31,32.3Zm151.42-61.58H1241.64V121.35h121.13Z" transform="translate(0 -0.21)"/></g></g></svg>