<svg id="Layer_1" data-name="Layer 1" xmlns="http://www.w3.org/2000/svg" width="342.01" height="49.08" viewBox="0 0 342.01 49.08"><title>gizmodo</title><path d="M56,43.22V5.82a6.3,6.3,0,0,1,1.33-4.37A4.43,4.43,0,0,1,60.81,0a4.59,4.59,0,0,1,3.52,1.44,6.23,6.23,0,0,1,1.35,4.39V43.22a6.28,6.28,0,0,1-1.35,4.4,4.55,4.55,0,0,1-3.52,1.46,4.42,4.42,0,0,1-3.42-1.47A6.29,6.29,0,0,1,56,43.22"/><path d="M317.48,49.07A24.52,24.52,0,1,1,342,24.55a24.55,24.55,0,0,1-24.52,24.52m0-39.12a14.6,14.6,0,1,0,14.6,14.6A14.61,14.61,0,0,0,317.48,10"/><path d="M207.4,49.07a24.52,24.52,0,1,1,24.52-24.52A24.55,24.55,0,0,1,207.4,49.07m0-39.12A14.6,14.6,0,1,0,222,24.55,14.61,14.61,0,0,0,207.4,10"/><path d="M285.11,24.54h0A24.56,24.56,0,0,0,261.31,0l-.73,0H248.27q-3.16,0-4.57,1.44T242.29,6.1V43q0,3.21,1.41,4.65t4.57,1.44l12.31,0,.73,0a24.56,24.56,0,0,0,23.8-24.51h0M262.32,39c-1.19.08-2.46.09-3.84.09H252V10h6.44c1.37,0,2.65,0,3.84.09a14.61,14.61,0,0,1,12.85,14.46v0h0v0A14.62,14.62,0,0,1,262.32,39"/><path d="M169,.22A4.21,4.21,0,0,0,164.22,2L149.43,24.48,134.65,2A4.21,4.21,0,0,0,129.88.22a4.34,4.34,0,0,0-3,4.16v40a4.26,4.26,0,1,0,8.51,0V18.67l10.5,16,0,0v0l0,.06.21.28.1.11c.06.07.12.14.18.2l.18.17.13.12.26.19.07.06h0l.29.18.08.05.23.11a4.21,4.21,0,0,0,1.34.37h0l.27,0h.29l.27,0h0a4.21,4.21,0,0,0,1.34-.37l.23-.11.08-.05.29-.18h0l.07-.06.26-.19.13-.12.17-.16.18-.2.1-.11.21-.28,0-.06v0l0,0,10.49-16V44.41a4.26,4.26,0,1,0,8.51,0v-40a4.34,4.34,0,0,0-3-4.16"/><path d="M112.39,48.07H80.59a4.73,4.73,0,0,1-4.22-2.67,5.35,5.35,0,0,1,.65-5.6L103,9.61H81.54a4.41,4.41,0,0,1-4.25-4.55,4,4,0,0,1,4.25-4h29a6.08,6.08,0,0,1,4.92,1.92c1.38,1.52,1.32,4.78-.23,6.73L90.08,39h22.31a4.25,4.25,0,0,1,4.06,4.54,4.25,4.25,0,0,1-4.06,4.54"/><path d="M24.34,49.07a23.87,23.87,0,0,1-18-7.88A24.58,24.58,0,0,1,0,25C0,6.79,15.15,0,24.7,0A31.94,31.94,0,0,1,41.27,4.8a4.71,4.71,0,0,1,1.26,6.48,4.57,4.57,0,0,1-6.37,1.29A23,23,0,0,0,24.7,9.34c-6,0-14.24,3.95-14.24,15.68,0,6.67,5,14.54,14.06,14.54a20.21,20.21,0,0,0,10.81-2.69V29.93H28.24a4.67,4.67,0,0,1,0-9.34h11.7a4.64,4.64,0,0,1,4.61,4.67V39.14a4.71,4.71,0,0,1-1.4,3.35c-3.09,3-9.87,6.58-18.81,6.58"/></svg>