<svg id="_ogo" data-name=";ogo" xmlns="http://www.w3.org/2000/svg" width="596.39" height="148.49" viewBox="0 0 596.39 148.49"><title>lifehacker</title><path d="M26.29,148H3.42V2.64L26.29,4.11Z" transform="translate(-3.42 -1.16)"/><path d="M52.3,12.78a13.1,13.1,0,1,1-13.1,13.1A13.15,13.15,0,0,1,52.3,12.78ZM63.74,148H40.87V44.33l22.87,1.29Z" transform="translate(-3.42 -1.16)"/><path d="M118.34,65.17V88H101.18V147.9H78.31V34.18c0-17.34,14.39-33,31.36-33,5.72,0,10.33,1.66,11.44,2.4l-.92,22H109.67a8.62,8.62,0,0,0-8.49,8.67v31Z" transform="translate(-3.42 -1.16)"/><path d="M127.59,74.4a31.45,31.45,0,1,1,62.9,0V96.53A11.38,11.38,0,0,1,179.06,108H150.47v10a8.66,8.66,0,0,0,8.67,8.67h22l.74,19.37-20.66,3.14c-19.92,3.32-33.57-13.84-33.57-31.17Zm22.87,10.7h17.16V74.4a8.58,8.58,0,1,0-17.16,0Z" transform="translate(-3.42 -1.16)"/><path d="M210.05,148V3.56h14.76v43.9c4.06-1.29,10.51-1.84,14.94-1.84,15.68,0,27.85,14.2,27.85,30.25V148H253.22V75.87a14.25,14.25,0,0,0-14.39-14.2h-14V148Z" transform="translate(-3.42 -1.16)"/><path d="M321.6,73.47c0-8.3-3.87-14.94-14.39-13.83h.18c-5.9.18-13.47.92-19.74,1.29-.18-5.35-.37-7.38-.55-11.44a62.94,62.94,0,0,1,18.26-3.87C323.81,45.25,336,60.19,336,76.24v43.9a28.81,28.81,0,0,1-28.59,29,29.13,29.13,0,0,1-29-29v-9c0-15.86,10.88-27.85,29-27.85a45.62,45.62,0,0,1,14.2,1.84Zm0,46.67V95.24h-14.2a14.09,14.09,0,0,0-14.2,14.2v10.7a14.2,14.2,0,1,0,28.41,0Z" transform="translate(-3.42 -1.16)"/><path d="M377.31,45.62a29,29,0,0,1,29,29v1.84c-5.72.18-10.33.18-14.57.37V74.58a14.37,14.37,0,0,0-14.39-14.2,14.17,14.17,0,0,0-14,14.2V120.7a13.94,13.94,0,0,0,14,14.2,14.14,14.14,0,0,0,14.39-13.65c7.19.55,14,.92,14.57.92a28.89,28.89,0,0,1-57.74-1.48V74.58A28.85,28.85,0,0,1,377.31,45.62Z" transform="translate(-3.42 -1.16)"/><path d="M432.68,3.93V148H417.93V3.93ZM464.41,148l-28-48.88c-2.77-4.8-2.77-5.35.55-11.07l24.72-41h16.79L450.58,94.32,480.65,148Z" transform="translate(-3.42 -1.16)"/><path d="M483.75,74.76a28.87,28.87,0,1,1,57.74,0V97.45a7.28,7.28,0,0,1-7.38,7.38h-35.6v15.68a14.25,14.25,0,0,0,14.2,14.39h18.63c.18,4.8.37,8.12.74,11.44l-17.71,2.77c-18.08,3.14-30.62-12.54-30.62-28.59Zm14.76,15.5h28.41V74.76a14.2,14.2,0,1,0-28.41,0Z" transform="translate(-3.42 -1.16)"/><path d="M569.19,148H554.43V76.06c0-16,12.54-31,31-30.62a32.36,32.36,0,0,1,14.39,3.69c-.18,4.43-.37,8.12-.55,11.44l-16-.37c-7.75,0-14,8.3-14,15.86Z" transform="translate(-3.42 -1.16)"/></svg>