<svg id="Layer_1" data-name="Layer 1" xmlns="http://www.w3.org/2000/svg" width="171.19" height="24" viewBox="0 0 171.19 24"><title>techcrunch</title><path d="M65.78,9.4V20H61.9V9.4H58V6H69.7V9.4Z" transform="translate(-0.81 -1.02)"/><path d="M78.76,15.8H72.6a1.66,1.66,0,0,0,1.78,1.68,5.48,5.48,0,0,0,2.72-.74L78.48,19a8.15,8.15,0,0,1-4.28,1.2c-3.16,0-4.9-2.24-4.9-5.46,0-3.62,2-5.48,4.8-5.48s4.68,1.9,4.68,5.8A6.73,6.73,0,0,1,78.76,15.8ZM74,12c-.82,0-1.28.56-1.4,1.6h3C75.42,12.5,75.06,12,74,12Z" transform="translate(-0.81 -1.02)"/><path d="M85.46,20.24c-3.08,0-4.92-2-4.92-5.5,0-3.22,1.64-5.44,5-5.44a4.4,4.4,0,0,1,4,2.4L87.1,13.58c-.5-.92-.84-1.36-1.62-1.36s-1.38.92-1.38,2.58.5,2.52,1.48,2.52c.68,0,1.16-.38,1.82-1.36l2.28,1.78C88.46,19.54,87.32,20.24,85.46,20.24Z" transform="translate(-0.81 -1.02)"/><path d="M97.74,20v-6c0-1.36-.46-1.72-1.2-1.72s-1.22.36-1.22,1.68v6h-3.6V6.88l3.6-1.44v4.78A4,4,0,0,1,98,9.3c2.3,0,3.4,1.54,3.4,4.3V20Z" transform="translate(-0.81 -1.02)"/><path d="M110,20.24c-4.16,0-6.38-3.08-6.38-7.22,0-4.5,2.64-7.22,6.4-7.22,3.44,0,4.8,1.48,5.76,4.12l-3.52,1.38c-.5-1.3-1-2.12-2.26-2.12-1.62,0-2.32,1.62-2.32,3.84s.68,3.84,2.36,3.84c1.22,0,1.74-.66,2.5-2l3.28,1.74A6,6,0,0,1,110,20.24Z" transform="translate(-0.81 -1.02)"/><path d="M124.66,13.48A2.27,2.27,0,0,0,123,12.6c-.88,0-1.42.42-1.42,1.7V20H118V9.52h3.6v.76a3.22,3.22,0,0,1,3.94-.54Z" transform="translate(-0.81 -1.02)"/><path d="M133.22,20v-.7a4,4,0,0,1-2.62.92c-2.3,0-3.4-1.54-3.4-4.3V9.52h3.62v6c0,1.36.46,1.72,1.2,1.72s1.2-.36,1.2-1.68v-6h3.62V20Z" transform="translate(-0.81 -1.02)"/><path d="M145.46,20v-6c0-1.36-.46-1.72-1.2-1.72S143,12.7,143,14v6h-3.6V9.52H143v.7a4,4,0,0,1,2.64-.92c2.3,0,3.4,1.54,3.4,4.3V20Z" transform="translate(-0.81 -1.02)"/><path d="M156.1,20.24c-3.08,0-4.92-2-4.92-5.5,0-3.22,1.64-5.44,5-5.44a4.4,4.4,0,0,1,4,2.4l-2.48,1.88c-.5-.92-.84-1.36-1.62-1.36s-1.38.92-1.38,2.58.5,2.52,1.48,2.52c.68,0,1.16-.38,1.82-1.36l2.28,1.78C159.1,19.54,158,20.24,156.1,20.24Z" transform="translate(-0.81 -1.02)"/><path d="M168.38,20v-6c0-1.36-.46-1.72-1.2-1.72S166,12.7,166,14v6h-3.6V6.88L166,5.44v4.78a4,4,0,0,1,2.64-.92c2.3,0,3.4,1.54,3.4,4.3V20Z" transform="translate(-0.81 -1.02)"/><polygon points="0 0 0 8 8 8 8 24 16 24 16 8 24 8 24 0 0 0"/><polygon points="32 16 32 8 24 8 24 24 48 24 48 16 32 16"/><rect x="32" width="16" height="8"/></svg>